<svg width="99" height="48" viewBox="0 0 99 48" fill="none" xmlns="http://www.w3.org/2000/svg">
<g clip-path="url(#clip0)">
<path d="M31.8569 28.5979C31.6365 28.5979 31.451 28.5979 31.2254 28.5979C30.4764 24.9919 29.733 21.4126 28.9807 17.7895C29.1845 17.7755 29.3362 17.7647 29.5451 17.7503C30.201 20.8957 30.8527 24.0201 31.5082 27.1632C31.7758 27.106 31.7322 26.8838 31.7703 26.739C32.3998 24.356 33.0199 21.97 33.6426 19.5851C33.7956 18.9985 33.9505 18.4127 34.1126 17.797C34.2545 17.7843 34.388 17.7725 34.5745 17.7559C35.4026 20.9238 36.2258 24.0727 37.0493 27.222C37.0919 27.2207 37.1346 27.219 37.1772 27.2177C37.8273 24.0923 38.4773 20.9669 39.1374 17.7928C39.3083 17.7814 39.4743 17.7703 39.7295 17.7533C38.9688 21.4064 38.2214 24.9958 37.4731 28.5891C37.3331 28.61 37.2479 28.6313 37.1619 28.6336C37.075 28.6358 36.9878 28.6198 36.8455 28.6064C36.0028 25.5235 35.2362 22.4164 34.415 19.3246C34.374 19.3279 34.3326 19.3312 34.2916 19.3348C33.4815 22.4157 32.6716 25.4974 31.8569 28.5979Z" fill="white"/>
<path d="M53.7454 34.922C54.055 34.4906 54.4452 34.2975 54.9771 34.3479C54.9771 34.523 54.9771 34.6759 54.9771 34.8576C54.8733 34.8769 54.7691 34.8867 54.6711 34.9161C54.2359 35.0468 54.1295 35.2905 54.3115 35.7258C54.7571 36.7913 54.607 37.8049 53.8473 38.5463C53.0944 39.2812 52.1957 39.4864 51.1879 39.1675C51.1033 39.1407 51.0239 39.0979 50.9409 39.0659C50.8767 39.041 50.8103 39.0214 50.6678 38.9737C50.6316 39.0345 50.5874 39.112 50.5405 39.1878C50.2235 39.6998 50.3895 40.1795 50.9783 40.2785C51.5362 40.3722 52.1104 40.3827 52.6784 40.3977C53.2184 40.4121 53.7431 40.4673 54.2337 40.7111C55.1988 41.1901 55.5624 42.2563 55.0357 43.198C54.859 43.514 54.5917 43.8117 54.2984 44.0234C53.2425 44.7864 51.3842 44.7978 50.2908 44.0907C49.1112 43.3277 48.9846 41.9037 50.0125 40.9499C50.1033 40.8656 50.1977 40.7853 50.3198 40.6771C49.6167 40.0229 49.7261 39.3263 50.2163 38.6398C49.3075 37.2543 49.2909 36.0636 50.1528 35.1504C51.0756 34.1724 52.309 34.0829 53.7454 34.922ZM52.2487 44.0656C52.9391 44.0649 53.5853 43.9025 54.1311 43.4549C54.5719 43.0935 54.8287 42.6242 54.6884 42.0446C54.5543 41.4894 54.123 41.2065 53.5999 41.0535C53.5322 41.0336 53.4606 41.0209 53.3903 41.0173C52.8073 40.9865 52.2181 41.0012 51.643 40.9179C51.0808 40.8366 50.6853 41.0637 50.3218 41.4309C49.6349 42.125 49.7212 43.015 50.5311 43.5692C51.047 43.9228 51.63 44.0509 52.2487 44.0656ZM53.9843 36.7959C53.9778 35.7166 53.1374 34.902 52.03 34.9007C50.907 34.8994 50.0496 35.7451 50.0594 36.8443C50.0692 37.9062 50.9357 38.7427 52.0274 38.7437C53.1556 38.7443 53.9908 37.9131 53.9843 36.7959Z" fill="white"/>
<path d="M79.392 41.3519C79.2446 41.3519 79.1062 41.3519 78.8937 41.3519C78.8937 41.1424 78.8937 40.9522 78.8937 40.7624C78.8937 39.4746 78.8943 38.1872 78.8934 36.8995C78.8934 36.7208 78.8966 36.541 78.88 36.3636C78.8051 35.565 78.2694 35.001 77.4755 34.9229C77.1054 34.8863 76.7255 34.885 76.3554 34.922C75.4762 35.0092 74.9072 35.6366 74.8965 36.5423C74.8799 37.9373 74.8906 39.3322 74.8896 40.7271C74.8896 40.9205 74.8896 41.1143 74.8896 41.3358C74.7061 41.3502 74.5713 41.3607 74.4378 41.3708C74.4017 41.3048 74.3574 41.26 74.3552 41.2133C74.3412 40.9281 74.3308 40.6425 74.3301 40.3569C74.3275 39.2123 74.3298 38.0676 74.3281 36.923C74.3278 36.7443 74.3278 36.5646 74.3099 36.3875C74.2266 35.5539 73.7019 35.0059 72.8686 34.9223C72.4985 34.8854 72.1183 34.8847 71.7488 34.9242C70.8527 35.0203 70.3173 35.6477 70.3046 36.6185C70.2893 37.7987 70.3007 38.979 70.3004 40.1595C70.3004 40.5337 70.3004 40.9075 70.3004 41.3296C70.1285 41.344 69.9836 41.3558 69.802 41.3708C69.802 39.0459 69.802 36.7668 69.802 34.4599C69.9651 34.4599 70.0995 34.4599 70.2603 34.4599C70.2844 34.6207 70.3072 34.7739 70.3293 34.922C71.8693 34.0554 73.321 33.9662 74.638 35.3441C75.5273 34.1874 76.733 34.1417 77.9771 34.4733C78.9227 34.7253 79.4249 35.4696 79.45 36.4309C79.492 38.0386 79.4529 39.6482 79.4467 41.2568C79.4467 41.2718 79.4298 41.2872 79.392 41.3519Z" fill="white"/>
<path d="M91.4302 41.3505C91.2248 41.3505 91.0871 41.3505 90.9293 41.3505C90.9107 41.229 90.8821 41.127 90.8818 41.0244C90.8785 39.7017 90.8801 38.3787 90.8782 37.056C90.8778 36.8237 90.8811 36.5904 90.8593 36.3594C90.7835 35.5614 90.2473 35.0079 89.4528 34.9203C89.1709 34.8893 88.8835 34.8945 88.599 34.902C87.5056 34.9305 86.879 35.5562 86.8689 36.6498C86.8576 37.8833 86.8663 39.1168 86.8663 40.3503C86.8663 40.6689 86.8663 40.9875 86.8663 41.3355C86.6844 41.3483 86.55 41.3574 86.3579 41.3708C86.3468 41.1532 86.3296 40.963 86.3293 40.7725C86.3263 39.539 86.3296 38.3055 86.325 37.072C86.3241 36.8224 86.3146 36.5708 86.2817 36.3237C86.1769 35.5353 85.6779 35.018 84.8925 34.9275C84.5061 34.8831 84.1071 34.8824 83.7204 34.9246C82.8324 35.022 82.294 35.6575 82.2823 36.626C82.2657 37.9843 82.2774 39.3433 82.2771 40.7016C82.2771 40.8963 82.2771 41.0914 82.2771 41.3332C82.1013 41.344 81.9571 41.3525 81.782 41.3633C81.782 39.0525 81.782 36.7881 81.782 34.4707C81.9246 34.4576 82.0701 34.4439 82.2374 34.4282C82.2641 34.6223 82.2849 34.7753 82.3145 34.9912C82.9935 34.3949 83.7705 34.2874 84.5855 34.3217C85.4117 34.3567 86.104 34.6609 86.5718 35.398C87.5079 34.1835 88.7123 34.1443 89.957 34.472C90.8551 34.7083 91.3827 35.4056 91.4143 36.3231C91.4709 37.982 91.4302 39.6426 91.4302 41.3505Z" fill="white"/>
<path d="M30.3418 36.9903C30.3418 38.4819 30.3418 39.8867 30.3418 41.3358C30.1409 41.3453 29.9954 41.3522 29.8252 41.36C29.8252 37.7324 29.8252 34.1498 29.8252 30.5343C30.0133 30.5189 30.1686 30.4964 30.3242 30.4957C31.0185 30.4918 31.7131 30.5023 32.4074 30.4925C34.3103 30.4647 35.4935 31.974 35.4509 33.5793C35.4307 34.3341 35.2933 35.0327 34.8767 35.663C34.3289 36.492 33.5698 36.9622 32.5653 36.9857C32.0315 36.9982 31.497 36.9897 30.9628 36.9906C30.788 36.9906 30.6126 36.9903 30.3418 36.9903ZM30.429 31.0777C30.2829 31.6015 30.2962 36.0084 30.4472 36.4374C31.1991 36.4374 31.9631 36.4685 32.7235 36.4276C33.313 36.3959 33.8071 36.1022 34.1928 35.6477C34.852 34.8703 35.0095 33.9675 34.8337 32.9872C34.6573 32.0027 33.8943 31.1881 32.9146 31.094C32.0904 31.0146 31.2525 31.0777 30.429 31.0777Z" fill="white"/>
<path d="M62.512 35.6314C62.4297 35.4611 62.3636 35.3252 62.2864 35.1664C63.1712 34.6383 64.0878 34.3188 65.0894 34.3315C66.3484 34.3472 67.1463 35.1664 67.1694 36.4375C67.1847 37.2779 67.1762 38.1189 67.1726 38.96C67.169 39.7465 67.1456 40.5343 67.4321 41.3365C67.2182 41.3365 67.0522 41.3365 66.8673 41.3365C66.7888 41.0715 66.714 40.8192 66.6274 40.5271C66.4399 40.6441 66.2758 40.7447 66.1134 40.8483C65.4979 41.2404 64.8342 41.4796 64.0972 41.4545C62.8818 41.4133 62.085 40.4912 62.209 39.2779C62.2702 38.6787 62.5921 38.2529 63.1038 37.9588C63.7555 37.5844 64.4729 37.4609 65.2072 37.4236C65.647 37.4014 66.0884 37.4194 66.5516 37.4194C66.5516 36.8822 66.6101 36.4146 66.5376 35.9686C66.4357 35.3422 65.9377 34.9582 65.2896 34.9105C64.5637 34.8573 63.8733 35.0069 63.2148 35.3144C62.9921 35.4177 62.7672 35.516 62.512 35.6314ZM66.5906 37.9474C66.104 37.9474 65.7131 37.9232 65.3263 37.9529C64.6867 38.002 64.0526 38.097 63.4693 38.3964C63.0618 38.6055 62.7968 38.9143 62.7496 39.3874C62.6595 40.2915 63.3635 40.979 64.3244 40.9052C65.1616 40.8408 65.8462 40.4405 66.4461 39.8782C66.517 39.8115 66.5821 39.6978 66.5844 39.6044C66.5974 39.0734 66.5906 38.5414 66.5906 37.9474Z" fill="white"/>
<path d="M41.7229 15.8643C41.6093 15.8787 41.5403 15.895 41.4716 15.8934C41.4049 15.8917 41.3385 15.8715 41.2167 15.8496C41.2167 15.6444 41.2167 15.4522 41.2167 15.2601C41.2167 13.9913 41.219 12.7225 41.2161 11.4537C41.2128 9.97877 40.596 9.36186 39.1306 9.38375C38.8493 9.388 38.5596 9.42394 38.2901 9.50171C37.7332 9.66182 37.3764 10.0464 37.2485 10.615C37.1902 10.8738 37.1658 11.1446 37.1639 11.4106C37.1557 12.6794 37.1603 13.9482 37.1606 15.217C37.1606 15.4124 37.1606 15.6078 37.1606 15.8564C36.9894 15.8682 36.8452 15.878 36.6665 15.8901C36.6665 12.2563 36.6665 8.67175 36.6665 5.03726C36.814 5.02941 36.9575 5.02157 37.1603 5.01079C37.1603 6.49589 37.1603 7.93361 37.1603 9.45498C37.3387 9.34911 37.436 9.28572 37.5382 9.23116C38.5492 8.69136 39.6003 8.67208 40.623 9.12725C41.4149 9.47949 41.7385 10.2013 41.7447 11.0505C41.7561 12.5516 41.7486 14.0528 41.7476 15.5539C41.7483 15.6408 41.7346 15.7284 41.7229 15.8643Z" fill="white"/>
<path d="M49.3191 11.524C47.5601 12.0729 45.832 12.6124 44.1163 13.1483C44.1664 14.0374 44.8991 14.9686 45.7747 15.2291C46.9417 15.5764 47.7701 15.0379 48.4393 14.0887C48.5851 14.1694 48.7183 14.2429 48.8315 14.3053C48.8315 14.3795 48.8442 14.42 48.8296 14.4445C47.8251 16.1466 45.7555 16.3949 44.392 14.9781C42.9731 13.5038 43.0802 10.8153 44.612 9.46347C45.6784 8.52209 47.2151 8.54595 48.2573 9.51935C48.8644 10.0859 49.1629 10.6362 49.3191 11.524ZM48.6652 11.2476C48.5168 10.7045 48.3608 10.4248 48.0288 10.066C47.2366 9.20926 46.0657 9.07921 45.1322 9.76703C44.4314 10.2836 44.0889 11.0185 43.9779 11.8651C43.9447 12.119 43.8702 12.3915 44.0538 12.681C45.5827 12.2059 47.1064 11.7321 48.6652 11.2476Z" fill="white"/>
<path d="M45.7776 26.8305C45.9196 26.9142 46.0514 26.9916 46.1787 27.0668C45.6526 28.3957 43.668 29.2733 42.1108 28.0761C40.2903 26.6763 40.2545 23.5907 42.0366 22.1344C43.048 21.308 44.4812 21.3218 45.4798 22.1674C46.1507 22.7353 46.5146 23.379 46.6448 24.2717C44.9134 24.8135 43.1723 25.3582 41.4432 25.8993C41.5223 26.8158 42.2433 27.717 43.1163 27.9794C44.2914 28.3323 45.1058 27.7706 45.7776 26.8305ZM41.3576 25.4389C42.9327 24.9471 44.4691 24.4674 46.0332 23.9789C45.7884 23.2643 45.4189 22.7327 44.8265 22.3821C44.1465 21.9795 43.4467 21.9491 42.7449 22.3357C41.7365 22.8908 41.1496 24.1479 41.3576 25.4389Z" fill="white"/>
<path d="M66.5177 24.2681C64.7583 24.8174 63.0312 25.3569 61.3151 25.8927C61.3506 26.7697 62.0791 27.6784 62.9531 27.9771C63.8983 28.2999 64.7245 27.9598 65.6095 26.8831C65.6431 26.8795 65.6841 26.8616 65.7088 26.8746C65.8162 26.9318 65.9188 26.9981 66.0226 27.0609C66.0145 27.1344 66.0246 27.1952 66.0008 27.2354C65.048 28.844 62.9853 29.1132 61.6608 27.8042C60.1531 26.3142 60.2406 23.5607 61.8392 22.1798C62.8701 21.2894 64.3915 21.3064 65.4032 22.2249C65.9868 22.7552 66.3875 23.3918 66.5177 24.2681ZM61.1944 25.382C61.8867 25.284 65.4898 24.1328 65.8576 23.8901C65.6558 23.2842 65.3071 22.7788 64.7645 22.4301C64.1786 22.0534 63.5484 21.9498 62.8785 22.2066C61.736 22.6451 60.9372 24.1263 61.1944 25.382Z" fill="white"/>
<path d="M99.0001 37.0164C97.2453 37.5657 95.5051 38.1101 93.7301 38.6656C94.0065 39.6867 94.5289 40.4108 95.4866 40.7333C96.4162 41.0463 97.1174 40.731 98.1567 39.5936C98.2267 39.6295 98.3068 39.6628 98.3777 39.7099C98.4344 39.7475 98.4803 39.8014 98.5265 39.8438C97.9044 41.2544 95.9341 41.9397 94.4918 40.845C92.6439 39.4426 92.598 36.3316 94.4013 34.8706C95.4241 34.042 96.9068 34.0783 97.8846 34.9634C98.4819 35.5036 98.8998 36.1463 99.0001 37.0164ZM98.3543 36.7384C98.2391 36.179 97.9555 35.7748 97.5864 35.4382C96.9816 34.887 96.2815 34.6566 95.4723 34.9183C94.2877 35.3013 93.3945 36.8769 93.6712 38.0905C93.6742 38.1036 93.6956 38.1124 93.7611 38.1676C95.26 37.7013 96.7941 37.2239 98.3543 36.7384Z" fill="white"/>
<path d="M47.8699 37.8454C47.8722 39.0028 47.5112 39.9439 46.729 40.7045C45.7711 41.6361 44.3805 41.7116 43.3239 40.8937C42.6322 40.3582 42.2136 39.6429 42.0545 38.7894C41.8068 37.4628 41.9943 36.227 42.9333 35.1912C44.0876 33.9182 45.8883 33.9607 46.9888 35.2873C47.6173 36.0453 47.9008 36.9292 47.8699 37.8454ZM47.3306 37.7654C47.3104 36.9766 47.0754 36.1718 46.4458 35.5209C45.5204 34.5645 44.2454 34.5808 43.3448 35.5546C42.2895 36.6953 42.2088 38.7398 43.1703 39.9618C44.222 41.2983 45.9032 41.1957 46.8039 39.7409C47.1603 39.1655 47.3309 38.5385 47.3306 37.7654Z" fill="white"/>
<path d="M72.1617 22.6389C72.0224 22.715 71.886 22.7895 71.7109 22.8853C71.5859 22.7425 71.4807 22.5951 71.3499 22.4765C70.6901 21.8792 69.3952 21.8436 68.7192 22.4138C68.5597 22.5481 68.4161 22.7242 68.3227 22.9104C68.0545 23.446 68.1889 23.9708 68.7286 24.2282C69.2208 24.4629 69.7644 24.5909 70.2891 24.7537C70.5944 24.8481 70.9186 24.8886 71.2145 25.0046C71.8785 25.265 72.3091 25.7555 72.3931 26.4737C72.4794 27.2109 72.1604 27.8 71.5754 28.2346C70.4365 29.0806 68.2599 28.8515 67.4927 27.2239C67.6278 27.1455 67.7677 27.0641 67.9223 26.9743C68.0037 27.0782 68.0633 27.1429 68.1105 27.2158C68.6427 28.0408 69.835 28.431 70.9235 27.9686C71.2835 27.8157 71.5569 27.5788 71.7239 27.22C72.0074 26.6103 71.8352 25.98 71.2493 25.6457C71.0074 25.5078 70.721 25.4431 70.4489 25.3667C69.9694 25.232 69.4834 25.1206 69.004 24.9863C68.8513 24.9435 68.7078 24.8644 68.5642 24.7932C67.2961 24.1635 67.5177 22.8506 68.1339 22.1847C69.1501 21.0865 71.2477 21.2345 72.1028 22.4683C72.1308 22.5092 72.1373 22.566 72.1617 22.6389Z" fill="white"/>
<path d="M73.709 27.205C73.8392 27.1351 73.973 27.0628 74.1263 26.9805C74.1966 27.0684 74.2565 27.1318 74.303 27.204C74.8473 28.0496 76.0568 28.4385 77.1577 27.9562C77.4952 27.8082 77.7585 27.5817 77.9184 27.2403C78.2178 26.6018 78.0407 25.9695 77.4285 25.6307C77.2 25.5042 76.9331 25.4415 76.6775 25.3719C76.2489 25.2552 75.8124 25.1673 75.3856 25.0451C75.1653 24.9821 74.9491 24.8886 74.7467 24.7798C73.7477 24.2429 73.5326 23.1088 74.2825 22.253C75.3632 21.0198 77.6355 21.243 78.3653 22.6144C78.2422 22.6954 78.1159 22.7788 77.9698 22.8755C77.8962 22.8072 77.8298 22.7546 77.7738 22.6925C77.1004 21.9442 76.2668 21.8789 75.3759 22.1579C74.9335 22.2965 74.6064 22.6013 74.4641 23.0653C74.3102 23.5666 74.4215 23.9799 74.8925 24.2034C75.4006 24.4446 75.9579 24.5841 76.4969 24.7566C76.8344 24.8644 77.1967 24.9108 77.5164 25.0553C78.7041 25.5908 78.97 26.9828 78.0993 27.9503C77.0021 29.1704 74.4039 28.9302 73.709 27.205Z" fill="white"/>
<path d="M54.3682 28.6077C54.1752 28.6077 54.0544 28.6077 53.9382 28.6077C53.8171 28.1996 53.7699 23.0839 53.8751 21.7099C54.0115 21.6965 54.157 21.6825 54.3262 21.6661C54.3542 21.8632 54.376 22.0174 54.4053 22.2226C54.5257 22.1409 54.6133 22.0589 54.7165 22.0158C55.041 21.8795 55.3629 21.6946 55.7024 21.6462C56.1549 21.5822 56.6275 21.5854 57.0829 21.6371C58.1326 21.7557 58.91 22.5425 58.9386 23.5956C58.9825 25.2023 58.95 26.8112 58.9474 28.4192C58.9474 28.4689 58.9174 28.5189 58.8924 28.5973C58.7612 28.5973 58.6281 28.5973 58.4458 28.5973C58.436 28.3882 58.4194 28.1963 58.4191 28.0049C58.4171 26.772 58.4207 25.5392 58.4178 24.3063C58.4171 24.0747 58.4126 23.841 58.382 23.612C58.2726 22.7935 57.8833 22.3353 57.0796 22.204C56.6308 22.1305 56.1513 22.1295 55.7024 22.201C54.9818 22.3161 54.5342 22.7771 54.4144 23.5156C54.3776 23.743 54.3702 23.9773 54.3695 24.2086C54.3656 25.4594 54.3682 26.7103 54.3682 27.9608C54.3682 28.1545 54.3682 28.3486 54.3682 28.6077Z" fill="white"/>
<path d="M31.724 5.55259C30.6525 5.55259 29.6786 5.55259 28.6594 5.55259C28.6418 5.36079 28.6285 5.21375 28.6116 5.0275C30.8553 5.0275 33.0554 5.0275 35.2672 5.0275C35.288 5.07847 35.3215 5.12454 35.3231 5.1716C35.3261 5.27387 35.3127 5.3768 35.3013 5.54704C34.2864 5.54704 33.2985 5.54704 32.2475 5.54704C32.2475 9.02339 32.2475 12.4285 32.2475 15.8637C32.0492 15.8637 31.9161 15.8637 31.724 15.8637C31.724 12.4501 31.724 9.04299 31.724 5.55259Z" fill="white"/>
<path d="M37.1102 34.4534C37.2824 34.4534 37.4022 34.4534 37.5545 34.4534C37.5949 34.6207 37.6349 34.787 37.6932 35.0288C38.3191 34.409 39.0476 34.19 39.8789 34.3743C40.3411 34.4769 40.6009 34.6553 40.9313 35.0922C40.8196 35.1925 40.7057 35.2948 40.5583 35.4271C40.1979 35.004 39.7523 34.8716 39.224 34.8906C38.6869 34.9102 38.2739 35.1278 38.046 35.5866C37.8598 35.9614 37.6951 36.3878 37.6766 36.7985C37.619 38.0653 37.6356 39.3354 37.6238 40.6042C37.6219 40.8336 37.6235 41.0627 37.6235 41.3319C37.4256 41.3319 37.2814 41.3319 37.1099 41.3319C37.1102 39.0427 37.1102 36.7796 37.1102 34.4534Z" fill="white"/>
<path d="M57.384 34.4606C57.5432 34.4606 57.676 34.4606 57.83 34.4606C57.855 34.6413 57.8765 34.7965 57.9 34.9651C58.2577 34.7716 58.5851 34.5109 58.9543 34.4184C59.3364 34.3227 59.7638 34.3501 60.1632 34.3965C60.5831 34.4452 60.9112 34.702 61.1856 35.0772C61.0661 35.185 60.9545 35.2856 60.8445 35.385C60.7715 35.3559 60.7149 35.348 60.6778 35.3167C59.712 34.5021 58.5311 34.7824 58.0995 35.9682C57.9504 36.3776 57.8908 36.8374 57.8794 37.2765C57.8498 38.4378 57.869 39.6004 57.869 40.7627C57.869 40.9388 57.869 41.1146 57.869 41.3244C57.6985 41.3446 57.566 41.3603 57.4394 41.3754C57.3046 40.9803 57.2587 35.3105 57.384 34.4606Z" fill="white"/>
<path d="M48.2051 17.7624C48.3633 17.7735 48.4974 17.783 48.6556 17.7944C48.6556 21.391 48.6556 24.9569 48.6556 28.5777C48.5049 28.5921 48.3613 28.6058 48.2256 28.6188C48.1058 28.1594 48.0869 18.4025 48.2051 17.7624Z" fill="white"/>
<path d="M50.9844 17.7931C51.1713 17.7833 51.3047 17.7765 51.4317 17.7696C51.5508 18.2042 51.568 27.9905 51.4587 28.5505C50.9958 28.6437 50.9867 28.6437 50.986 28.1686C50.9825 26.0218 50.9844 23.8753 50.9844 21.7286C50.9844 20.6016 50.9844 19.4746 50.9847 18.3476C50.9844 18.1725 50.9844 17.9977 50.9844 17.7931Z" fill="white"/>
<path d="M25.7025 15.0098C25.7025 15.0098 28.1803 7.73005 20.2836 0.0712392C20.156 -0.052601 19.9441 -0.00914259 19.8754 0.155215C19.1082 1.99387 15.7128 10.9306 20.0202 15.7539C20.0202 15.7539 21.9426 17.4899 22.6376 17.699C22.6376 17.699 18.6818 11.3456 19.5473 7.98623C19.5661 7.91238 19.6706 7.91271 19.6885 7.98688C19.975 9.1766 21.2383 14.1456 23.0608 17.2958C23.148 17.4464 23.3527 17.6281 23.5103 17.7016C23.7521 17.8144 23.8423 17.9977 24.0939 17.3262C24.1033 17.285 24.1678 17.0302 24.171 16.988C24.2134 16.4168 24.5057 11.905 23.3788 9.14294C22.4368 6.83311 22.0585 5.76135 21.9785 5.19247C21.9615 5.07255 22.1174 5.01145 22.1868 5.11046C22.7056 5.85219 24.0301 7.90323 24.4503 10.0729C24.977 12.7931 24.9539 16.7227 24.8149 17.1645C24.8146 17.1645 25.5326 15.698 25.7025 15.0098Z" fill="white"/>
<path d="M16.9422 9.9154C16.9422 9.9154 17.1687 7.06348 17.1173 6.85665C16.8598 6.37109 14.76 4.51087 13.8128 4.20078C13.8128 4.20078 13.4629 8.61328 14.2555 9.07826C15.079 9.71902 16.2319 10.4114 16.2319 10.4114C16.2319 10.4114 14.8215 6.9599 14.8215 6.49493C14.8215 6.49493 16.8598 9.82228 16.9422 9.9154Z" fill="white"/>
<path d="M9.75399 17.9068C9.75399 17.9068 8.12941 15.5558 7.95917 15.4287C7.45366 15.2167 4.65498 15.1124 3.72632 15.4748C3.72632 15.4748 6.23986 19.1116 7.14671 18.9675C8.18832 18.9397 9.51735 18.7423 9.51735 18.7423C9.51735 18.7423 6.24832 16.9684 5.95472 16.6086C5.95472 16.6086 9.63161 17.8872 9.75399 17.9068Z" fill="white"/>
<path d="M9.34099 28.8505C9.34099 28.8505 6.56444 28.2045 6.35319 28.2251C5.83661 28.4088 3.69382 30.219 3.24854 31.1136C3.24854 31.1136 7.54421 32.1129 8.11937 31.3946C8.87226 30.6715 9.72476 29.6292 9.72476 29.6292C9.72476 29.6292 6.1159 30.5196 5.65791 30.451C5.65759 30.451 9.23715 28.9188 9.34099 28.8505Z" fill="white"/>
<path d="M16.5316 37.0158C16.5316 37.0158 13.9963 38.3232 13.8485 38.4758C13.5725 38.9509 13.1018 41.7224 13.3374 42.6938C13.3374 42.6938 17.2594 40.6709 17.2363 39.7498C17.3457 38.7097 17.3259 37.3612 17.3259 37.3612C17.3259 37.3612 15.144 40.3811 14.7501 40.6258C14.7498 40.6258 16.4961 37.1351 16.5316 37.0158Z" fill="white"/>
<path d="M16.8545 12.1269C12.1604 7.9261 6.10767 7.72482 6.10767 7.72482C6.10767 7.72482 6.80262 8.9959 7.21926 10.3134C7.63591 11.6309 10.5856 20.1869 16.3913 20.1405L15.99 19.0864C15.99 19.0864 12.207 16.56 11.373 15.3042C10.5391 14.0485 10.6781 14.2969 11.0332 14.5913C11.3883 14.8857 15.8353 18.4973 16.6384 18.7143C16.6384 18.7143 17.5957 18.7917 18.1207 18.6679C18.6457 18.544 18.162 16.9939 17.8789 16.5907C17.6093 16.2071 16.3236 13.956 12.7864 12.056C12.4774 11.89 12.1783 11.7057 11.8919 11.5031C11.4863 11.2165 10.9033 10.8375 10.7555 10.4836C10.7555 10.4836 14.9708 12.0337 17.125 14.4671C17.125 14.4671 18.3372 15.7382 18.5842 16.2031L19.4182 16.3427C19.4182 16.3427 18.0595 14.2501 17.7659 13.5371C17.6422 13.2362 17.5566 13.0179 17.4996 12.8666C17.4261 12.6716 17.303 12.4994 17.1429 12.3664L16.8545 12.1269Z" fill="white"/>
<path d="M11.2084 19.9808C4.93887 19.4906 0 23.0091 0 23.0091C0 23.0091 1.31959 23.5983 2.44616 24.3936C3.57273 25.1889 11.0805 30.2059 15.673 26.64L14.7177 26.045C14.7177 26.045 10.1831 26.3335 8.76191 25.8411C7.34109 25.3487 7.60116 25.4614 8.06143 25.4801C8.52169 25.4987 14.2392 25.6702 15.0093 25.3549C15.0093 25.3549 15.8179 24.8347 16.1609 24.4168C16.504 23.9989 15.1841 23.0594 14.7157 22.9108C14.2698 22.7693 11.8887 21.7593 7.92764 22.3968C7.58163 22.4527 7.23237 22.4873 6.88212 22.5004C6.38638 22.5187 5.69371 22.5716 5.36267 22.3798C5.36267 22.3798 9.65216 21.0515 12.8346 21.6789C12.8346 21.6789 14.566 21.9537 15.0432 22.1736L15.7908 21.7779C15.7908 21.7779 13.4472 20.9385 12.7838 20.5493C12.5039 20.385 12.3044 20.2634 12.1673 20.1775C11.9912 20.067 11.7894 20.0046 11.5817 19.9961L11.2084 19.9808Z" fill="white"/>
<path d="M11.5453 29.6233C6.61134 33.5372 5.36597 39.4867 5.36597 39.4867C5.36597 39.4867 6.73341 39.0198 8.09825 38.8355C9.46308 38.6512 18.3685 37.2164 19.3278 31.4685L18.224 31.6828C18.224 31.6828 15.0904 34.9857 13.7142 35.5928C12.3379 36.1999 12.6055 36.1055 12.9557 35.8052C13.3063 35.5049 17.6192 31.7335 17.9714 30.977C17.9714 30.977 18.2133 30.0438 18.1824 29.5034C18.1514 28.9629 16.547 29.173 16.1027 29.3831C15.6799 29.5831 13.2487 30.4647 10.7719 33.6332C10.5555 33.91 10.3231 34.1737 10.0747 34.422C9.72316 34.7733 9.25053 35.2843 8.87783 35.369C8.87783 35.369 11.1284 31.4698 13.8886 29.7612C13.8886 29.7612 15.3456 28.7826 15.8446 28.6188L16.1258 27.8186C16.1258 27.8186 13.8375 28.7999 13.0872 28.9665C12.7705 29.0368 12.5417 29.0835 12.3832 29.1139C12.1791 29.1531 11.9887 29.2446 11.8305 29.3799L11.5453 29.6233Z" fill="white"/>
<path d="M18.833 36.4459C17.5156 42.6184 20.3329 48 20.3329 48C20.3329 48 21.09 46.7655 22.0248 45.7503C22.9597 44.7354 28.9112 37.9324 26.0012 32.8889L25.287 33.7603C25.287 33.7603 24.969 38.3104 24.2939 39.6586C23.6188 41.0068 23.765 40.763 23.8444 40.3075C23.9238 39.852 24.8531 34.1861 24.6442 33.3784C24.6442 33.3784 24.2379 32.5046 23.8711 32.1079C23.5043 31.7113 22.4011 32.8993 22.1922 33.3457C21.9933 33.7705 20.6795 36.0052 20.7824 40.0311C20.7915 40.3827 20.7795 40.7349 20.7456 41.0849C20.6978 41.5806 20.6577 42.2766 20.4247 42.5804C20.4247 42.5804 19.6835 38.1359 20.7261 35.0533C20.7261 35.0533 21.2277 33.3673 21.5083 32.9219L21.2169 32.1253C21.2169 32.1253 20.0764 34.3452 19.6041 34.9537C19.4045 35.2105 19.2581 35.3928 19.1549 35.5176C19.0224 35.6784 18.9342 35.8709 18.8977 36.0761L18.833 36.4459Z" fill="white"/>
</g>
<defs>
<clipPath id="clip0">
<rect width="99" height="48" fill="white"/>
</clipPath>
</defs>
</svg>
